<?xml version="1.0" encoding="utf-8"?>
<!-- Generator: Adobe Illustrator 18.0.0, SVG Export Plug-In . SVG Version: 6.00 Build 0)  -->
<!DOCTYPE svg PUBLIC "-//W3C//DTD SVG 1.1//EN" "http://www.w3.org/Graphics/SVG/1.1/DTD/svg11.dtd">
<svg version="1.1" id="Layer_1" xmlns="http://www.w3.org/2000/svg" xmlns:xlink="http://www.w3.org/1999/xlink" x="0px" y="0px"
	 viewBox="0 0 238.8 32.1" enable-background="new 0 0 238.8 32.1" xml:space="preserve">
<g>
	<g>
		<path fill="#FFFFFF" d="M5.2,14.4c0,0.4-0.1,0.7-0.2,1c-0.1,0.3-0.3,0.6-0.5,0.8c-0.3,0.3-0.6,0.5-1,0.6C3.1,17,2.6,17,2,17H1.1v3
			H0v-8.2h2.1c0.5,0,0.9,0,1.2,0.1c0.3,0.1,0.6,0.2,0.9,0.4c0.3,0.2,0.5,0.5,0.7,0.8C5.1,13.5,5.2,13.9,5.2,14.4z M4,14.4
			c0-0.3,0-0.5-0.1-0.7c-0.1-0.2-0.2-0.4-0.4-0.5C3.3,13,3.1,13,2.8,12.9c-0.2,0-0.5-0.1-0.9-0.1H1.1v3.3h0.7c0.4,0,0.8,0,1.1-0.1
			c0.3-0.1,0.5-0.2,0.7-0.4c0.2-0.2,0.3-0.3,0.4-0.5C4,14.9,4,14.7,4,14.4z"/>
		<path fill="#FFFFFF" d="M13.1,12.9c0.3,0.4,0.6,0.8,0.7,1.3c0.2,0.5,0.3,1.1,0.3,1.8c0,0.7-0.1,1.3-0.3,1.8
			c-0.2,0.5-0.4,1-0.7,1.3c-0.3,0.4-0.7,0.7-1.2,0.8c-0.4,0.2-0.9,0.3-1.5,0.3c-0.6,0-1-0.1-1.5-0.3c-0.4-0.2-0.8-0.5-1.1-0.8
			c-0.3-0.4-0.6-0.8-0.7-1.3c-0.2-0.5-0.3-1.1-0.3-1.8c0-0.7,0.1-1.3,0.3-1.8c0.2-0.5,0.4-1,0.7-1.3C8.1,12.5,8.5,12.2,9,12
			s0.9-0.3,1.5-0.3c0.6,0,1.1,0.1,1.5,0.3C12.4,12.2,12.8,12.5,13.1,12.9z M12.9,16c0-0.5-0.1-1-0.2-1.4c-0.1-0.4-0.3-0.8-0.5-1
			c-0.2-0.3-0.5-0.5-0.8-0.6c-0.3-0.1-0.6-0.2-1-0.2c-0.4,0-0.7,0.1-1,0.2c-0.3,0.1-0.6,0.4-0.8,0.6c-0.2,0.3-0.4,0.6-0.5,1
			C8,15,8,15.5,8,16c0,1.1,0.2,1.9,0.7,2.5c0.4,0.6,1.1,0.9,1.8,0.9c0.8,0,1.4-0.3,1.8-0.9C12.7,17.9,12.9,17.1,12.9,16z"/>
		<path fill="#FFFFFF" d="M25.5,11.9l-2.1,8.2h-1.2l-1.7-6.8L19,20.1h-1.2l-2.1-8.2h1.1l1.6,6.8l1.6-6.8h1.1l1.7,6.9l1.6-6.9H25.5z"
			/>
		<path fill="#FFFFFF" d="M27.6,20.1v-8.2h5.1v1h-4v2.2h3.7v1h-3.7v3h4v1H27.6z"/>
		<path fill="#FFFFFF" d="M41.4,20.1H40l-2.6-3.2h-1.2v3.2h-1.1v-8.2h2.1c0.5,0,0.9,0,1.2,0.1c0.3,0.1,0.6,0.2,0.9,0.4
			c0.3,0.2,0.5,0.4,0.7,0.7c0.2,0.3,0.2,0.6,0.2,1.1c0,0.6-0.2,1.1-0.5,1.5c-0.3,0.4-0.7,0.7-1.2,0.9L41.4,20.1z M39,14.2
			c0-0.2,0-0.4-0.1-0.6c-0.1-0.2-0.2-0.3-0.4-0.5C38.4,13,38.2,13,38,12.9c-0.2,0-0.5-0.1-0.8-0.1h-1.1v3.1h1c0.3,0,0.6,0,0.8-0.1
			c0.2-0.1,0.5-0.2,0.6-0.3c0.2-0.2,0.3-0.3,0.3-0.5C39,14.7,39,14.5,39,14.2z"/>
		<path fill="#FFFFFF" d="M43.2,20.1v-8.2h5.1v1h-4v2.2H48v1h-3.7v3h4v1H43.2z"/>
		<path fill="#FFFFFF" d="M57,16c0,0.7-0.2,1.4-0.5,2c-0.3,0.6-0.7,1.1-1.2,1.4c-0.4,0.3-0.8,0.4-1.3,0.5s-1,0.1-1.6,0.1h-1.9v-8.2
			h1.9c0.8,0,1.4,0.1,1.8,0.2c0.4,0.1,0.8,0.3,1.1,0.5c0.5,0.3,0.9,0.8,1.2,1.4C56.9,14.5,57,15.2,57,16z M55.9,16
			c0-0.6-0.1-1.2-0.3-1.6c-0.2-0.4-0.5-0.8-0.9-1c-0.3-0.2-0.6-0.3-0.9-0.4c-0.3-0.1-0.7-0.1-1.2-0.1h-0.8v6.3h0.8
			c0.5,0,0.9,0,1.3-0.1c0.4-0.1,0.7-0.2,1-0.4c0.4-0.3,0.7-0.6,0.8-1C55.8,17.2,55.9,16.6,55.9,16z"/>
		<path fill="#FFFFFF" d="M69.5,17.6c0,0.4-0.1,0.8-0.2,1.1c-0.2,0.3-0.4,0.6-0.6,0.8c-0.3,0.2-0.6,0.4-1,0.5
			c-0.4,0.1-0.8,0.2-1.4,0.2H64v-8.2h2.2c0.6,0,1,0,1.3,0.1c0.3,0,0.6,0.1,0.8,0.3c0.3,0.2,0.5,0.4,0.6,0.6c0.1,0.3,0.2,0.6,0.2,0.9
			c0,0.4-0.1,0.7-0.3,1c-0.2,0.3-0.5,0.5-0.8,0.7v0c0.5,0.1,0.9,0.4,1.1,0.7C69.4,16.6,69.5,17.1,69.5,17.6z M68,13.9
			c0-0.2,0-0.4-0.1-0.5c-0.1-0.1-0.2-0.3-0.3-0.3c-0.2-0.1-0.4-0.2-0.6-0.2c-0.2,0-0.5,0-0.9,0h-1v2.4h1.2c0.3,0,0.6,0,0.8-0.1
			c0.2,0,0.3-0.1,0.5-0.2c0.2-0.1,0.3-0.2,0.4-0.4C67.9,14.4,68,14.2,68,13.9z M68.4,17.6c0-0.3,0-0.6-0.1-0.8
			c-0.1-0.2-0.3-0.4-0.5-0.5c-0.2-0.1-0.4-0.1-0.6-0.2c-0.2,0-0.5,0-0.9,0H65v3h0.9c0.5,0,0.8,0,1.1-0.1c0.3,0,0.5-0.1,0.7-0.3
			c0.2-0.1,0.4-0.3,0.4-0.5C68.3,18.1,68.4,17.9,68.4,17.6z"/>
		<path fill="#FFFFFF" d="M77.4,11.9l-2.8,4.6v3.6h-1.1v-3.5l-2.8-4.7H72l2.1,3.6l2.1-3.6H77.4z"/>
	</g>
	<g>
		<path fill="#FFFFFF" d="M107.8,24.2H95.1c0-2.4,1.9-4.4,4.4-4.4h12.7C112.2,22.3,110.2,24.2,107.8,24.2"/>
		<path fill="#FFFFFF" d="M99.4,18.2c-2.4,0-4.4-1.9-4.4-4.4h12.7c2.4,0,4.4,1.9,4.4,4.4H99.4z"/>
		<path fill="#FFFFFF" d="M107.8,12.2H95.1c0-2.4,1.9-4.4,4.4-4.4h12.7C112.2,10.2,110.2,12.2,107.8,12.2"/>
		<path fill="#FFFFFF" d="M136.4,24c-3.5,0-7.1-0.9-7.1-5.1h4.1c0,1.4,1.2,1.7,2.7,1.7c1.5,0,2.8-0.3,2.8-1.6c0-1.2-0.9-1.2-2.3-1.3
			c-3.9-0.3-7-0.4-7-5.1c0-3.8,3.1-4.6,6.9-4.6c3.6,0,6.9,0.8,6.9,5.1h-4.1c0-1.5-1.5-1.7-2.6-1.7c-1,0-2.7,0.1-2.7,1.5
			c0,1.2,0.9,1.2,2.1,1.3c4,0.3,7.3,0.3,7.3,5.2C143.4,23.2,139.8,24,136.4,24"/>
		<path fill="#FFFFFF" d="M152.5,17.3c-1.9,0-2.5,0.6-2.5,1.7c0,1,0.5,1.7,2.5,1.7c3.3,0,3.4-1.8,3.4-3.4H152.5z M156.3,23.9v-1.3
			c-1,0.9-2.4,1.5-4.6,1.5c-3.6,0-6-1.2-6-5c0-4.6,3.5-5.1,6.8-5.1h3.5v-0.3c0-1.3-0.1-2.3-2.7-2.3c-1.3,0-2.8,0.2-2.8,1.3h-4.3
			c0-3.9,3.8-4.7,7.1-4.7c2,0,3.6,0.3,4.7,0.9c2.1,1.4,2.2,3.4,2.2,5.7v9.1H156.3z"/>
		<path fill="#FFFFFF" d="M180.1,11.4c-2.5,0-2.8,1.2-2.8,2.8h5.7C183.1,12.5,182.8,11.4,180.1,11.4 M177.3,17.5
			c0.1,2.2,0.5,3.1,3.1,3.1c1,0,2.8-0.2,2.8-1.7h4c0,4.4-4.2,5.1-7,5.1c-6.4,0-7.4-3.4-7.4-7.8c0-4.5,0.9-8.3,7.3-8.3
			c6.9,0,7.3,4.1,7.3,9.5H177.3z"/>
		<path fill="#FFFFFF" d="M196.5,24c-3.5,0-7.1-0.9-7.1-5.1h4.1c0,1.4,1.2,1.7,2.7,1.7c1.5,0,2.8-0.3,2.8-1.6c0-1.2-0.9-1.2-2.3-1.3
			c-3.9-0.3-7-0.4-7-5.1c0-3.8,3.1-4.6,6.9-4.6c3.6,0,6.9,0.8,6.9,5.1h-4.1c0-1.5-1.5-1.7-2.6-1.7c-1,0-2.7,0.1-2.7,1.5
			c0,1.2,0.9,1.2,2.1,1.3c4,0.3,7.3,0.3,7.3,5.2C203.6,23.2,200,24,196.5,24"/>
		<path fill="#FFFFFF" d="M208.5,7.7c-1.5,0-2.3-0.8-2.3-2.3c0-1.5,0.9-2.3,2.3-2.3c1.4,0,2.3,0.8,2.3,2.3
			C210.9,6.9,210,7.7,208.5,7.7"/>
		<rect x="206.3" y="9.3" fill="#FFFFFF" width="4.5" height="14.4"/>
		<path fill="#FFFFFF" d="M231.5,11.4c-2.5,0-2.8,1.2-2.8,2.8h5.7C234.4,12.5,234.2,11.4,231.5,11.4 M228.7,17.5
			c0.1,2.2,0.5,3.1,3.1,3.1c1,0,2.8-0.2,2.8-1.7h4c0,4.4-4.2,5.1-7,5.1c-6.4,0-7.4-3.4-7.4-7.8c0-4.5,0.9-8.3,7.3-8.3
			c6.9,0,7.3,4.1,7.3,9.5H228.7z"/>
		<path fill="#FFFFFF" d="M170,6.4h1.1V2.9h-1.1v0c-2.1,0.1-3.6,0.6-4.6,1.5c-1.2,1.1-1.5,2.4-1.5,4v1h-2v3.7h2v10.6h4.5V13.1h2.7
			V9.4h-2.8V8.8C168.3,7.5,168.1,6.5,170,6.4"/>
		<path fill="#FFFFFF" d="M222.3,13V9.3h-2.6V3.6h-4.5v5.8h-2V13h2v5.5c0,3.6,2.2,5.2,5.9,5.2l1.1,0V20h-1c-1.3-0.1-1.5-0.9-1.5-2
			v-5H222.3z"/>
		<path fill="#FFFFFF" d="M117.6,23c0,3.9-3.1,7-7,7h-21v-21c0-3.9,3.1-7,7-7h21V23z M117.6,0h-21c-5,0-9.1,4.1-9.1,9.1v21v2h2h21
			c5,0,9.1-4.1,9.1-9.1V2V0H117.6z"/>
	</g>
</g>
</svg>
