<?xml version="1.0" encoding="utf-8"?>
<!-- Generator: Adobe Illustrator 18.0.0, SVG Export Plug-In . SVG Version: 6.00 Build 0)  -->
<!DOCTYPE svg PUBLIC "-//W3C//DTD SVG 1.1//EN" "http://www.w3.org/Graphics/SVG/1.1/DTD/svg11.dtd">
<svg version="1.1" id="Layer_1" xmlns="http://www.w3.org/2000/svg" xmlns:xlink="http://www.w3.org/1999/xlink" x="0px" y="0px"
	 viewBox="0 555.7 841.9 179.1" enable-background="new 0 555.7 841.9 179.1" xml:space="preserve">
<g>
	<g>
		<path fill="#FFFFFF" d="M112.8,690.7H41.6c0-13.4,10.9-24.2,24.2-24.2h70.7C137,680.4,126.1,690.7,112.8,690.7"/>
		<path fill="#FFFFFF" d="M65.8,657.6c-13.4,0-24.2-10.9-24.2-24.2h70.7c13.4,0,24.2,10.9,24.2,24.2H65.8z"/>
		<path fill="#FFFFFF" d="M112.8,624H41.6c0-13.4,10.9-24.2,24.2-24.2h70.7C137,613.1,126.1,624,112.8,624"/>
		<path fill="#FFFFFF" d="M271.6,689.8c-19.3,0-39.6-4.9-39.6-28.7h22.8c0,7.9,6.4,9.4,15.3,9.9c8.4,0,15.8-1.5,15.8-8.9
			c0-6.9-5.4-6.9-12.9-7.4c-21.8-1.5-39.1-2-39.1-28.2c0-21.3,17.3-25.7,38.6-25.7c19.8,0,38.6,4.5,38.6,28.7h-22.8
			c0-7.9-8.4-9.4-14.3-9.9c-5.9,0-14.8,0.5-14.8,7.9c0,6.9,4.9,6.9,11.4,7.4c22.3,2,40.6,2,40.6,28.7
			C311.1,685.3,290.4,689.8,271.6,689.8"/>
		<path fill="#FFFFFF" d="M361.1,652.2c-10.4,0-13.9,3-13.9,9.9c0,5.4,3,9.4,13.9,9.4c18.3,0,18.8-9.9,18.8-19.3L361.1,652.2
			L361.1,652.2z M382.4,689.3v-6.9c-5.4,4.9-13.4,8.4-25.7,8.4c-20.3,0-33.6-6.4-33.6-27.7c0-25.7,19.3-28.2,37.6-28.2H380v-1.5
			c0-7.4-0.5-12.9-15.3-12.9c-6.9,0-15.3,1-15.3,7.4h-23.7c0-21.3,20.8-26.2,39.6-26.2c10.9,0,20.3,1.5,26.2,5.4
			c11.9,7.9,12.4,19.3,12.4,32.2v50.5h-21.3v-0.5H382.4z"/>
		<path fill="#FFFFFF" d="M515.4,619.5c-13.9,0-15.8,6.4-15.8,15.8h31.7C531.7,625.4,530.3,619.5,515.4,619.5 M499.6,653.1
			c0.5,12.4,2.5,17.3,17.3,17.3c5.4,0,15.8-1,15.8-9.4H555c0,24.7-23.2,28.7-39.1,28.7c-35.6,0-41.1-18.8-41.1-43
			c0-24.7,4.9-46,40.6-46c38.6,0,40.6,23.2,40.6,52.9h-56.4V653.1z"/>
		<path fill="#FFFFFF" d="M606.9,689.8c-19.3,0-39.6-4.9-39.6-28.7h22.8c0,7.9,6.4,9.4,15.3,9.9c8.4,0,15.8-1.5,15.8-8.9
			c0-6.9-5.4-6.9-12.9-7.4c-21.8-1.5-39.1-2-39.1-28.2c0-21.3,17.3-25.7,38.6-25.7c19.8,0,38.6,4.5,38.6,28.7h-23.2
			c0-7.9-8.4-9.4-14.3-9.9c-5.9,0-14.8,0.5-14.8,7.9c0,6.9,4.9,6.9,11.4,7.4c22.3,2,40.6,2,40.6,28.7
			C646,685.3,625.7,689.8,606.9,689.8"/>
		<path fill="#FFFFFF" d="M673.7,598.7c-7.9,0-12.9-4.5-12.9-12.9c0-8.4,4.9-12.9,12.9-12.9c7.9,0,12.9,4.5,12.9,12.9
			C686.6,594.2,681.6,598.7,673.7,598.7"/>
		<rect x="661.3" y="608.1" fill="#FFFFFF" width="24.7" height="80.1"/>
		<path fill="#FFFFFF" d="M801.8,619.5c-13.9,0-15.8,6.4-15.8,15.8h31.7C817.7,625.4,816.2,619.5,801.8,619.5 M785.5,653.1
			c0.5,12.4,2.5,17.3,17.3,17.3c5.4,0,15.8-1,15.8-9.4h22.3c0,24.7-23.2,28.7-39.1,28.7c-35.6,0-41.1-18.8-41.1-43
			c0-24.7,4.9-46,40.6-46c38.6,0,40.6,23.2,40.6,52.9h-56.4L785.5,653.1L785.5,653.1z"/>
		<path fill="#FFFFFF" d="M459,591.8h5.9V572h-6.4l0,0c-11.4,0.5-19.8,3.5-25.2,8.4c-6.4,5.9-7.9,13.4-7.9,22.3v5.9h-10.9v20.3h10.9
			v59.4h24.7v-59.4H465v-20.8h-15.8v-3.5C449.1,597.7,448.2,591.8,459,591.8"/>
		<path fill="#FFFFFF" d="M750.4,628.4v-20.8H736v-32.2h-24.7v32.2h-11.4v20.8h11.4v30.7c0,19.8,11.9,28.7,32.6,29.2h6.4v-20.8h-5.9
			c-7.4-0.5-8.4-4.9-8.4-10.9v-27.7h14.3v-0.5H750.4z"/>
		<path fill="#FFFFFF" d="M167.2,684.3c0,21.8-17.3,39.1-39.1,39.1H11.4V606.7c0-21.8,17.3-39.1,39.1-39.1h116.7V684.3z
			 M167.2,555.7H50.5c-27.7,0-50.5,22.8-50.5,51v116.7v11.4h11.4h116.7c27.7,0,50.5-22.8,50.5-50.5V567.6v-11.4h-11.4V555.7z"/>
	</g>
</g>
</svg>
