<?xml version="1.0" encoding="utf-8"?>
<!-- Generator: Adobe Illustrator 18.0.0, SVG Export Plug-In . SVG Version: 6.00 Build 0)  -->
<!DOCTYPE svg PUBLIC "-//W3C//DTD SVG 1.1//EN" "http://www.w3.org/Graphics/SVG/1.1/DTD/svg11.dtd">
<svg version="1.1" id="Layer_1" xmlns="http://www.w3.org/2000/svg" xmlns:xlink="http://www.w3.org/1999/xlink" x="0px" y="0px"
	 viewBox="0 0 66 66" enable-background="new 0 0 66 66" xml:space="preserve">
<g>
	<g>
		<path fill="#B3B3AE" d="M41.6,49.9H15.4c0-4.9,4-9,9-9h26.2C50.6,45.9,46.6,49.9,41.6,49.9"/>
		<path fill="#B3B3AE" d="M24.4,37.5c-4.9,0-9-4-9-9h26.2c4.9,0,9,4,9,9H24.4z"/>
		<path fill="#B3B3AE" d="M41.6,25.1H15.4c0-4.9,4-9,9-9h26.2C50.6,21.1,46.6,25.1,41.6,25.1"/>
		<path fill="#B3B3AE" d="M61.8,47.4c0,8-6.5,14.5-14.5,14.5H4.2V18.7c0-8,6.5-14.5,14.5-14.5h43.2V47.4z M61.8,0H18.7
			C8.4,0,0,8.4,0,18.7v43.2V66h4.2h43.2C57.7,66,66,57.7,66,47.4V4.2V0H61.8z"/>
	</g>
</g>
</svg>
