<?xml version="1.0" encoding="utf-8"?>
<!-- Generator: Adobe Illustrator 18.0.0, SVG Export Plug-In . SVG Version: 6.00 Build 0)  -->
<!DOCTYPE svg PUBLIC "-//W3C//DTD SVG 1.1//EN" "http://www.w3.org/Graphics/SVG/1.1/DTD/svg11.dtd">
<svg version="1.1" id="Layer_1" xmlns="http://www.w3.org/2000/svg" xmlns:xlink="http://www.w3.org/1999/xlink" x="0px" y="0px"
	 viewBox="0 0 170.2 56.4" enable-background="new 0 0 170.2 56.4" xml:space="preserve">
<g>
	<g>
		<path fill="#FFFFFF" d="M51.1,3c0,0.4-0.1,0.8-0.2,1.1c-0.1,0.4-0.3,0.7-0.6,0.9c-0.3,0.3-0.7,0.5-1.1,0.7c-0.4,0.2-1,0.2-1.6,0.2
			h-1v3.4h-1.2V0.2h2.3c0.5,0,1,0,1.4,0.1c0.4,0.1,0.7,0.2,1,0.4c0.3,0.2,0.6,0.5,0.8,0.9C51,2,51.1,2.5,51.1,3z M49.9,3
			c0-0.3-0.1-0.6-0.2-0.8c-0.1-0.2-0.3-0.4-0.5-0.6c-0.2-0.1-0.4-0.2-0.7-0.3c-0.3-0.1-0.6-0.1-1-0.1h-1v3.7h0.8
			c0.5,0,0.9,0,1.2-0.1c0.3-0.1,0.6-0.2,0.8-0.4c0.2-0.2,0.3-0.4,0.4-0.6C49.8,3.5,49.9,3.3,49.9,3z"/>
		<path fill="#FFFFFF" d="M60.1,1.2c0.3,0.4,0.6,0.9,0.8,1.5s0.3,1.3,0.3,2c0,0.7-0.1,1.4-0.3,2c-0.2,0.6-0.5,1.1-0.8,1.5
			c-0.4,0.4-0.8,0.7-1.3,0.9c-0.5,0.2-1.1,0.3-1.7,0.3c-0.6,0-1.2-0.1-1.7-0.3c-0.5-0.2-0.9-0.5-1.3-0.9c-0.4-0.4-0.6-0.9-0.8-1.5
			c-0.2-0.6-0.3-1.3-0.3-2c0-0.8,0.1-1.5,0.3-2c0.2-0.6,0.5-1.1,0.8-1.5c0.4-0.4,0.8-0.7,1.3-0.9S56.5,0,57.1,0
			c0.6,0,1.2,0.1,1.7,0.3C59.3,0.5,59.7,0.9,60.1,1.2z M59.9,4.8c0-0.6-0.1-1.1-0.2-1.6c-0.1-0.5-0.3-0.9-0.6-1.2
			c-0.2-0.3-0.5-0.6-0.9-0.7c-0.3-0.2-0.7-0.2-1.2-0.2c-0.4,0-0.8,0.1-1.2,0.2c-0.3,0.2-0.6,0.4-0.9,0.7c-0.2,0.3-0.4,0.7-0.6,1.2
			c-0.1,0.5-0.2,1-0.2,1.6c0,1.2,0.3,2.1,0.8,2.8c0.5,0.6,1.2,1,2,1c0.9,0,1.5-0.3,2-1C59.7,6.9,59.9,6,59.9,4.8z"/>
		<path fill="#FFFFFF" d="M74.1,0.2l-2.3,9.2h-1.4l-1.9-7.6l-1.8,7.6h-1.3L63,0.2h1.3l1.9,7.6L68,0.2h1.2l1.9,7.7l1.8-7.7H74.1z"/>
		<path fill="#FFFFFF" d="M76.4,9.4V0.2h5.7v1.1h-4.5v2.5h4.2v1.1h-4.2v3.4h4.5v1.1H76.4z"/>
		<path fill="#FFFFFF" d="M91.9,9.4h-1.6l-2.9-3.7H86v3.7h-1.2V0.2h2.4c0.5,0,1,0,1.3,0.1c0.4,0.1,0.7,0.2,1,0.4
			c0.3,0.2,0.6,0.5,0.8,0.8s0.3,0.7,0.3,1.2c0,0.7-0.2,1.2-0.5,1.7c-0.3,0.5-0.8,0.8-1.4,1L91.9,9.4z M89.3,2.8c0-0.3,0-0.5-0.1-0.7
			c-0.1-0.2-0.2-0.4-0.4-0.5c-0.2-0.1-0.4-0.2-0.6-0.2c-0.2,0-0.5-0.1-0.9-0.1H86v3.5h1.1c0.3,0,0.7,0,0.9-0.1s0.5-0.2,0.7-0.4
			c0.2-0.2,0.3-0.4,0.4-0.6C89.2,3.4,89.3,3.1,89.3,2.8z"/>
		<path fill="#FFFFFF" d="M93.9,9.4V0.2h5.7v1.1h-4.5v2.5h4.2v1.1h-4.2v3.4h4.5v1.1H93.9z"/>
		<path fill="#FFFFFF" d="M109.5,4.8c0,0.8-0.2,1.6-0.5,2.3c-0.3,0.7-0.8,1.2-1.4,1.6c-0.5,0.3-0.9,0.5-1.4,0.6s-1.1,0.1-1.8,0.1
			h-2.1V0.2h2.1c0.9,0,1.5,0.1,2,0.2c0.5,0.1,0.9,0.3,1.3,0.5c0.6,0.4,1.1,0.9,1.4,1.6C109.4,3.1,109.5,3.9,109.5,4.8z M108.3,4.8
			c0-0.7-0.1-1.3-0.4-1.8c-0.2-0.5-0.6-0.9-1-1.2c-0.3-0.2-0.7-0.3-1-0.4c-0.4-0.1-0.8-0.1-1.4-0.1h-0.9v7.1h0.9c0.5,0,1,0,1.4-0.1
			c0.4-0.1,0.8-0.2,1.1-0.5c0.4-0.3,0.7-0.7,1-1.2C108.1,6.1,108.3,5.5,108.3,4.8z"/>
		<path fill="#FFFFFF" d="M123.6,6.6c0,0.5-0.1,0.9-0.3,1.2c-0.2,0.3-0.4,0.6-0.7,0.9c-0.3,0.3-0.7,0.5-1.1,0.6
			c-0.4,0.1-0.9,0.2-1.5,0.2h-2.6V0.2h2.4c0.7,0,1.1,0,1.5,0.1c0.3,0,0.6,0.1,0.9,0.3c0.3,0.2,0.6,0.4,0.7,0.7
			c0.2,0.3,0.2,0.6,0.2,1c0,0.4-0.1,0.8-0.3,1.2c-0.2,0.3-0.5,0.6-0.9,0.8v0c0.5,0.1,1,0.4,1.3,0.8C123.4,5.5,123.6,6,123.6,6.6z
			 M121.9,2.4c0-0.2,0-0.4-0.1-0.6c-0.1-0.2-0.2-0.3-0.4-0.4c-0.2-0.1-0.4-0.2-0.7-0.2c-0.2,0-0.6,0-1,0h-1.2v2.7h1.4
			c0.4,0,0.7,0,0.8-0.1c0.2,0,0.4-0.1,0.6-0.2c0.2-0.1,0.3-0.3,0.4-0.5C121.8,3,121.9,2.7,121.9,2.4z M122.3,6.6
			c0-0.3,0-0.6-0.1-0.9c-0.1-0.2-0.3-0.4-0.6-0.6c-0.2-0.1-0.4-0.2-0.6-0.2c-0.2,0-0.6,0-1,0h-1.4v3.4h1c0.5,0,1,0,1.3-0.1
			c0.3,0,0.6-0.2,0.8-0.3c0.2-0.2,0.4-0.3,0.5-0.5C122.2,7.2,122.3,6.9,122.3,6.6z"/>
		<path fill="#FFFFFF" d="M132.5,0.2l-3.1,5.1v4.1h-1.2V5.4L125,0.2h1.4l2.4,4.1l2.4-4.1H132.5z"/>
	</g>
	<g>
		<path fill="#FFFFFF" d="M22.8,47.5H8.4c0-2.7,2.2-4.9,4.9-4.9h14.3C27.7,45.4,25.5,47.5,22.8,47.5"/>
		<path fill="#FFFFFF" d="M13.3,40.8c-2.7,0-4.9-2.2-4.9-4.9h14.3c2.7,0,4.9,2.2,4.9,4.9H13.3z"/>
		<path fill="#FFFFFF" d="M22.8,34H8.4c0-2.7,2.2-4.9,4.9-4.9h14.3C27.7,31.8,25.5,34,22.8,34"/>
		<path fill="#FFFFFF" d="M54.9,47.3c-3.9,0-8-1-8-5.8h4.6c0,1.6,1.3,1.9,3.1,2c1.7,0,3.2-0.3,3.2-1.8c0-1.4-1.1-1.4-2.6-1.5
			c-4.4-0.3-7.9-0.4-7.9-5.7c0-4.3,3.5-5.2,7.8-5.2c4,0,7.8,0.9,7.8,5.8h-4.6c0-1.6-1.7-1.9-2.9-2c-1.2,0-3,0.1-3,1.6
			c0,1.4,1,1.4,2.3,1.5c4.5,0.4,8.2,0.4,8.2,5.8C62.9,46.4,58.7,47.3,54.9,47.3"/>
		<path fill="#FFFFFF" d="M73,39.7c-2.1,0-2.8,0.6-2.8,2c0,1.1,0.6,1.9,2.8,1.9c3.7,0,3.8-2,3.8-3.9H73z M77.3,47.2v-1.4
			c-1.1,1-2.7,1.7-5.2,1.7c-4.1,0-6.8-1.3-6.8-5.6c0-5.2,3.9-5.7,7.6-5.7h3.9v-0.3c0-1.5-0.1-2.6-3.1-2.6c-1.4,0-3.1,0.2-3.1,1.5
			h-4.8c0-4.3,4.2-5.3,8-5.3c2.2,0,4.1,0.3,5.3,1.1c2.4,1.6,2.5,3.9,2.5,6.5v10.2H77.3z"/>
		<path fill="#FFFFFF" d="M104.2,33.1c-2.8,0-3.2,1.3-3.2,3.2h6.4C107.5,34.3,107.2,33.1,104.2,33.1 M101,39.9
			c0.1,2.5,0.5,3.5,3.5,3.5c1.1,0,3.2-0.2,3.2-1.9h4.5c0,5-4.7,5.8-7.9,5.8c-7.2,0-8.3-3.8-8.3-8.7c0-5,1-9.3,8.2-9.3
			c7.8,0,8.2,4.7,8.2,10.7H101z"/>
		<path fill="#FFFFFF" d="M122.7,47.3c-3.9,0-8-1-8-5.8h4.6c0,1.6,1.3,1.9,3.1,2c1.7,0,3.2-0.3,3.2-1.8c0-1.4-1.1-1.4-2.6-1.5
			c-4.4-0.3-7.9-0.4-7.9-5.7c0-4.3,3.5-5.2,7.8-5.2c4,0,7.8,0.9,7.8,5.8H126c0-1.6-1.7-1.9-2.9-2c-1.2,0-3,0.1-3,1.6
			c0,1.4,1,1.4,2.3,1.5c4.5,0.4,8.2,0.4,8.2,5.8C130.6,46.4,126.5,47.3,122.7,47.3"/>
		<path fill="#FFFFFF" d="M136.2,28.9c-1.6,0-2.6-0.9-2.6-2.6c0-1.7,1-2.6,2.6-2.6c1.6,0,2.6,0.9,2.6,2.6
			C138.8,28,137.8,28.9,136.2,28.9"/>
		<rect x="133.7" y="30.8" fill="#FFFFFF" width="5" height="16.2"/>
		<path fill="#FFFFFF" d="M162.1,33.1c-2.8,0-3.2,1.3-3.2,3.2h6.4C165.3,34.3,165,33.1,162.1,33.1 M158.8,39.9
			c0.1,2.5,0.5,3.5,3.5,3.5c1.1,0,3.2-0.2,3.2-1.9h4.5c0,5-4.7,5.8-7.9,5.8c-7.2,0-8.3-3.8-8.3-8.7c0-5,1-9.3,8.2-9.3
			c7.8,0,8.2,4.7,8.2,10.7H158.8z"/>
		<path fill="#FFFFFF" d="M92.8,27.5H94v-4h-1.3v0c-2.3,0.1-4,0.7-5.1,1.7c-1.3,1.2-1.6,2.7-1.6,4.5v1.2h-2.2V35h2.2v12h5V35H94
			v-4.2h-3.2v-0.7C90.8,28.7,90.6,27.5,92.8,27.5"/>
		<path fill="#FFFFFF" d="M151.7,34.9v-4.2h-2.9v-6.5h-5v6.5h-2.3v4.2h2.3v6.2c0,4,2.4,5.8,6.6,5.9l1.3,0v-4.2h-1.2
			c-1.5-0.1-1.7-1-1.7-2.2v-5.6H151.7z"/>
		<path fill="#FFFFFF" d="M33.8,46.2c0,4.4-3.5,7.9-7.9,7.9H2.3V30.5c0-4.4,3.5-7.9,7.9-7.9h23.6V46.2z M33.8,20.2H10.2
			C4.6,20.2,0,24.8,0,30.5v23.6v2.3h2.3h23.6c5.6,0,10.2-4.6,10.2-10.2V22.6v-2.3H33.8z"/>
	</g>
</g>
</svg>
